<?xml version="1.0" encoding="UTF-8" standalone="no"?>
<!-- Generator: Adobe Illustrator 18.1.1, SVG Export Plug-In . SVG Version: 6.00 Build 0)  -->

<svg
   version="1.1"
   id="Capa_1"
   x="0px"
   y="0px"
   viewBox="0 0 332.202 332.202"
   style="enable-background:new 0 0 332.202 332.202;"
   xml:space="preserve"
   inkscape:version="1.1 (c68e22c387, 2021-05-23)"
   width="100%"
   height="100%"
   sodipodi:docname="icon_bn.svg"
   inkscape:export-filename="F:\HTML5\uStopwatch\master\design\icon-256.png"
   inkscape:export-xdpi="69.355392"
   inkscape:export-ydpi="69.355392"
   xmlns:inkscape="http://www.inkscape.org/namespaces/inkscape"
   xmlns:sodipodi="http://sodipodi.sourceforge.net/DTD/sodipodi-0.dtd"
   xmlns="http://www.w3.org/2000/svg"
   xmlns:svg="http://www.w3.org/2000/svg"
   xmlns:rdf="http://www.w3.org/1999/02/22-rdf-syntax-ns#"
   xmlns:cc="http://creativecommons.org/ns#"
   xmlns:dc="http://purl.org/dc/elements/1.1/"><metadata
   id="metadata57"><rdf:RDF><cc:Work
       rdf:about=""><dc:format>image/svg+xml</dc:format><dc:type
         rdf:resource="http://purl.org/dc/dcmitype/StillImage" /></cc:Work></rdf:RDF></metadata><defs
   id="defs55"><linearGradient
     id="linearGradient3101"><stop
       style="stop-color:#bf0300;stop-opacity:1;"
       offset="0"
       id="stop3103" /><stop
       id="stop3109"
       offset="0.5"
       style="stop-color:#ff6600;stop-opacity:0.98823529;" /><stop
       style="stop-color:#bf001e;stop-opacity:0.98214287;"
       offset="1"
       id="stop3105" /></linearGradient></defs><sodipodi:namedview
   pagecolor="#ffffff"
   bordercolor="#666666"
   borderopacity="1"
   objecttolerance="10"
   gridtolerance="10"
   guidetolerance="10"
   inkscape:pageopacity="0"
   inkscape:pageshadow="2"
   inkscape:window-width="1920"
   inkscape:window-height="991"
   id="namedview53"
   showgrid="false"
   inkscape:zoom="0.71041114"
   inkscape:cx="-2.1114534"
   inkscape:cy="224.51788"
   inkscape:window-x="-9"
   inkscape:window-y="-9"
   inkscape:window-maximized="1"
   inkscape:current-layer="g3"
   inkscape:pagecheckerboard="0" />
<g
   id="g3">
	
<g
   id="g5"
   transform="translate(5.0014559e-4,5e-4)"><path
     style="fill:#010002"
     d="m 46.613,72.296 c 0,5.075 1.207,9.861 3.302,14.131 C 63.861,70.556 80.983,57.546 100.302,48.43 94.596,43.285 87.069,40.125 78.785,40.125 61.015,40.124 46.613,54.527 46.613,72.296 Z"
     id="path7"
     inkscape:connector-curvature="0" /><path
     style="fill:#010002"
     d="m 166.098,332.202 c 79.427,0 143.814,-64.388 143.814,-143.814 0,-71.127 -51.649,-130.151 -119.474,-141.72 V 41.153 35.627 19.711 h 12.472 c 4.128,0 7.479,-4.417 7.479,-9.856 0,-5.445 -3.35,-9.856 -7.479,-9.856 h -73.618 c -4.128,0 -7.479,4.411 -7.479,9.856 0,5.445 3.35,9.856 7.479,9.856 h 12.472 v 15.915 5.526 5.515 C 129.657,48.734 118.066,52.313 107.193,57.202 87.525,66.046 70.213,79.17 56.43,95.406 35.147,120.48 22.289,152.924 22.289,188.387 22.284,267.814 86.671,332.202 166.098,332.202 Z M 82.929,104.174 c 7.539,-7.446 16.072,-13.88 25.379,-19.102 17.106,-9.605 36.812,-15.11 57.79,-15.11 65.301,0 118.43,53.129 118.43,118.43 0,65.301 -53.129,118.43 -118.43,118.43 -65.301,0 -118.43,-53.134 -118.43,-118.436 0,-32.916 13.511,-62.727 35.261,-84.212 z"
     id="path9"
     inkscape:connector-curvature="0" /><path
     style="fill:#010002"
     d="m 77.512,239.215 c 2.866,4.988 6.146,9.714 9.79,14.125 18.727,22.692 47.075,37.16 78.796,37.16 56.398,0 102.113,-45.715 102.113,-102.113 0,-56.398 -45.715,-102.113 -102.113,-102.113 -31.721,0 -60.069,14.468 -78.796,37.16 -3.644,4.411 -6.918,9.138 -9.79,14.125 -8.605,14.968 -13.527,32.324 -13.527,50.828 0,18.504 4.922,35.86 13.527,50.828 z m 3.291,-71.518 c 0,-3.002 2.437,-5.439 5.439,-5.439 h 156.825 c 3.002,0 5.439,2.437 5.439,5.439 v 42.604 c 0,3.002 -2.437,5.439 -5.439,5.439 H 86.242 c -3.002,0 -5.439,-2.437 -5.439,-5.439 z"
     id="path11"
     inkscape:connector-curvature="0" /><path
     style="fill:#010002"
     d="m 119.137,208.137 c 5.939,0 10.1,-1.697 12.488,-5.091 2.388,-3.394 3.584,-8.229 3.584,-14.506 0,-6.277 -1.197,-11.123 -3.584,-14.533 -2.388,-3.41 -6.554,-5.118 -12.488,-5.118 -5.934,0 -10.1,1.708 -12.488,5.118 -2.388,3.41 -3.584,8.257 -3.584,14.533 0,6.276 1.197,11.112 3.584,14.506 2.388,3.394 6.554,5.091 12.488,5.091 z m -5.401,-29.774 c 0.881,-2.203 2.681,-3.307 5.401,-3.307 2.72,0 4.504,1.104 5.352,3.307 0.848,2.203 1.273,5.597 1.273,10.176 0,4.373 -0.424,7.718 -1.273,10.035 -0.848,2.317 -2.632,3.476 -5.352,3.476 -2.72,0 -4.52,-1.159 -5.401,-3.476 -0.881,-2.317 -1.316,-5.662 -1.316,-10.035 0,-4.579 0.441,-7.973 1.316,-10.176 z"
     id="path13"
     inkscape:connector-curvature="0" /><rect
     x="145.082"
     y="199.353"
     style="fill:#010002"
     width="9.7410002"
     height="7.8429999"
     id="rect15" /><rect
     x="145.082"
     y="179.701"
     style="fill:#010002"
     width="9.7410002"
     height="7.8429999"
     id="rect17" /><path
     style="fill:#010002"
     d="m 177.683,208.137 c 5.934,0 10.1,-1.697 12.488,-5.091 2.388,-3.394 3.584,-8.229 3.584,-14.506 0,-6.277 -1.197,-11.123 -3.584,-14.533 -2.388,-3.41 -6.554,-5.118 -12.488,-5.118 -5.939,0 -10.1,1.708 -12.488,5.118 -2.388,3.41 -3.584,8.257 -3.584,14.533 0,6.276 1.197,11.112 3.584,14.506 2.388,3.394 6.549,5.091 12.488,5.091 z m -5.401,-29.774 c 0.881,-2.203 2.681,-3.307 5.401,-3.307 2.72,0 4.504,1.104 5.352,3.307 0.849,2.203 1.267,5.597 1.267,10.176 0,4.373 -0.424,7.718 -1.267,10.035 -0.843,2.317 -2.633,3.476 -5.352,3.476 -2.72,0 -4.52,-1.159 -5.401,-3.476 -0.881,-2.317 -1.316,-5.662 -1.316,-10.035 -0.005,-4.579 0.435,-7.973 1.316,-10.176 z"
     id="path19"
     inkscape:connector-curvature="0" /><path
     style="fill:#010002"
     d="m 214.299,208.137 c 5.939,0 10.1,-1.697 12.488,-5.091 2.388,-3.394 3.584,-8.229 3.584,-14.506 0,-6.277 -1.197,-11.123 -3.584,-14.533 -2.388,-3.41 -6.554,-5.118 -12.488,-5.118 -5.934,0 -10.1,1.708 -12.488,5.118 -2.388,3.41 -3.584,8.257 -3.584,14.533 0,6.276 1.197,11.112 3.584,14.506 2.388,3.394 6.554,5.091 12.488,5.091 z m -5.401,-29.774 c 0.881,-2.203 2.681,-3.307 5.401,-3.307 2.72,0 4.504,1.104 5.352,3.307 0.848,2.203 1.267,5.597 1.267,10.176 0,4.373 -0.424,7.718 -1.267,10.035 -0.848,2.317 -2.633,3.476 -5.352,3.476 -2.72,0 -4.52,-1.159 -5.401,-3.476 -0.881,-2.317 -1.316,-5.662 -1.316,-10.035 0,-4.579 0.44,-7.973 1.316,-10.176 z"
     id="path21"
     inkscape:connector-curvature="0" /></g></g>
<g
   id="g23">
</g>
<g
   id="g25">
</g>
<g
   id="g27">
</g>
<g
   id="g29">
</g>
<g
   id="g31">
</g>
<g
   id="g33">
</g>
<g
   id="g35">
</g>
<g
   id="g37">
</g>
<g
   id="g39">
</g>
<g
   id="g41">
</g>
<g
   id="g43">
</g>
<g
   id="g45">
</g>
<g
   id="g47">
</g>
<g
   id="g49">
</g>
<g
   id="g51">
</g>
</svg>
