<?xml version="1.0" encoding="UTF-8" standalone="no"?>
<!-- Generator: Adobe Illustrator 18.1.1, SVG Export Plug-In . SVG Version: 6.00 Build 0)  -->

<svg
   version="1.1"
   id="Capa_1"
   x="0px"
   y="0px"
   viewBox="0 0 332.202 332.202"
   style="enable-background:new 0 0 332.202 332.202;"
   xml:space="preserve"
   inkscape:version="1.1 (c68e22c387, 2021-05-23)"
   width="100%"
   height="100%"
   sodipodi:docname="icon.svg"
   inkscape:export-filename="F:\HTML5\uStopwatch\master\design\icon-256.png"
   inkscape:export-xdpi="69.355392"
   inkscape:export-ydpi="69.355392"
   xmlns:inkscape="http://www.inkscape.org/namespaces/inkscape"
   xmlns:sodipodi="http://sodipodi.sourceforge.net/DTD/sodipodi-0.dtd"
   xmlns:xlink="http://www.w3.org/1999/xlink"
   xmlns="http://www.w3.org/2000/svg"
   xmlns:svg="http://www.w3.org/2000/svg"
   xmlns:rdf="http://www.w3.org/1999/02/22-rdf-syntax-ns#"
   xmlns:cc="http://creativecommons.org/ns#"
   xmlns:dc="http://purl.org/dc/elements/1.1/"><metadata
   id="metadata57"><rdf:RDF><cc:Work
       rdf:about=""><dc:format>image/svg+xml</dc:format><dc:type
         rdf:resource="http://purl.org/dc/dcmitype/StillImage" /></cc:Work></rdf:RDF></metadata><defs
   id="defs55"><linearGradient
     id="linearGradient3101"><stop
       style="stop-color:#bf0300;stop-opacity:1;"
       offset="0"
       id="stop3103" /><stop
       id="stop3109"
       offset="0.5"
       style="stop-color:#ff6600;stop-opacity:0.98823529;" /><stop
       style="stop-color:#bf001e;stop-opacity:0.98214287;"
       offset="1"
       id="stop3105" /></linearGradient><linearGradient
     inkscape:collect="always"
     xlink:href="#linearGradient3101"
     id="linearGradient3107"
     x1="550.3855"
     y1="15.483992"
     x2="767.16144"
     y2="298.41876"
     gradientUnits="userSpaceOnUse"
     gradientTransform="translate(-495.49275,7.0385021)" /></defs><sodipodi:namedview
   pagecolor="#ffffff"
   bordercolor="#666666"
   borderopacity="1"
   objecttolerance="10"
   gridtolerance="10"
   guidetolerance="10"
   inkscape:pageopacity="0"
   inkscape:pageshadow="2"
   inkscape:window-width="1920"
   inkscape:window-height="991"
   id="namedview53"
   showgrid="false"
   inkscape:zoom="0.71041114"
   inkscape:cx="-2.1114534"
   inkscape:cy="166.80482"
   inkscape:window-x="-9"
   inkscape:window-y="-9"
   inkscape:window-maximized="1"
   inkscape:current-layer="g3"
   inkscape:pagecheckerboard="0" />
<g
   id="g3">
	
<path
   style="fill:url(#linearGradient3107);fill-opacity:1"
   d="m 129.2885,0.00725208 c -4.128,0 -7.46875,4.39875012 -7.46875,9.84375002 0,5.4449999 3.33975,9.8749999 7.46875,9.8749999 l 12.46875,0 0,15.90625 0,5.53125 0,5.5 c -12.107,2.067 -23.6895,5.64225 -34.5625,10.53125 -19.667998,8.844 -36.998248,21.98275 -50.781248,38.21875 -21.283,25.073998 -34.125,57.505748 -34.125,92.968748 -0.005,79.427 64.3855,143.8125 143.812498,143.8125 79.427,0 143.8125,-64.3865 143.8125,-143.8125 0,-71.127 -51.64375,-130.149748 -119.46875,-141.718748 l 0,-5.5 0,-5.53125 0,-15.90625 12.46875,0 c 4.128,0 7.46875,-4.436 7.46875,-9.8749999 0,-5.4449999 -3.33975,-9.84375002 -7.46875,-9.84375002 l -73.625,0 z M 78.788502,40.132252 c -17.77,-10e-4 -32.1875,14.38725 -32.1875,32.15625 0,5.075 1.2175,9.855 3.3125,14.125 13.946,-15.871 31.056,-28.85275 50.374998,-37.96875 -5.705998,-5.145 -13.215998,-8.3125 -21.499998,-8.3125 z M 166.101,69.976002 c 65.301,0 118.4375,53.105248 118.4375,118.406248 0,65.301 -53.1365,118.4375 -118.4375,118.4375 -65.301,0 -118.437498,-53.1355 -118.437498,-118.4375 0,-32.916 13.5,-62.73375 35.25,-84.21875 7.539,-7.445998 16.068,-13.871748 25.374998,-19.093748 17.106,-9.605 36.8345,-15.09375 57.8125,-15.09375 z m 0,16.3125 c -31.721,0 -60.0855,14.464258 -78.812498,37.156248 -3.644,4.411 -6.90925,9.138 -9.78125,14.125 -8.605,14.968 -13.53125,32.3085 -13.53125,50.8125 0,18.504 4.92625,35.87575 13.53125,50.84375 2.866,4.988 6.13725,9.714 9.78125,14.125 18.726998,22.692 47.091498,37.15625 78.812498,37.15625 56.398,0 102.09375,-45.727 102.09375,-102.125 0,-56.398 -45.69575,-102.093748 -102.09375,-102.093748 z m -79.874998,75.968748 156.843748,0 c 3.002,0 5.4375,2.4355 5.4375,5.4375 l 0,42.59375 c 0,3.002 -2.4355,5.4375 -5.4375,5.4375 l -156.843748,0 c -3.002,0 -5.4375,-2.4355 -5.4375,-5.4375 l 0,-42.59375 c 0,-3.002 2.4355,-5.4375 5.4375,-5.4375 z m 32.906248,6.625 c -5.934,0 -10.112,1.715 -12.5,5.125 -2.388,3.41 -3.5625,8.25525 -3.5625,14.53125 0,6.276 1.1755,11.106 3.5625,14.5 2.388,3.394 6.566,5.09375 12.5,5.09375 5.939,0 10.112,-1.69975 12.5,-5.09375 2.388,-3.394 3.5625,-8.223 3.5625,-14.5 0,-6.277 -1.1755,-11.12125 -3.5625,-14.53125 -2.388,-3.41 -6.566,-5.125 -12.5,-5.125 z m 58.53125,0 c -5.939,0 -10.08075,1.715 -12.46875,5.125 -2.388,3.41 -3.59375,8.25525 -3.59375,14.53125 0,6.276 1.20675,11.106 3.59375,14.5 2.388,3.394 6.52975,5.09375 12.46875,5.09375 5.934,0 10.112,-1.69975 12.5,-5.09375 2.388,-3.394 3.59375,-8.223 3.59375,-14.5 0,-6.277 -1.20675,-11.12125 -3.59375,-14.53125 -2.388,-3.41 -6.566,-5.125 -12.5,-5.125 z m 36.625,0 c -5.934,0 -10.08075,1.715 -12.46875,5.125 -2.388,3.41 -3.59375,8.25525 -3.59375,14.53125 0,6.276 1.20675,11.106 3.59375,14.5 2.388,3.394 6.53475,5.09375 12.46875,5.09375 5.939,0 10.112,-1.69975 12.5,-5.09375 2.388,-3.394 3.5625,-8.223 3.5625,-14.5 0,-6.277 -1.1755,-11.12125 -3.5625,-14.53125 -2.388,-3.41 -6.566,-5.125 -12.5,-5.125 z m -95.15625,6.1875 c 2.72,0 4.49575,1.07825 5.34375,3.28125 0.848,2.203 1.28125,5.6085 1.28125,10.1875 0,4.373 -0.43225,7.71425 -1.28125,10.03125 -0.848,2.317 -2.62375,3.46875 -5.34375,3.46875 -2.72,0 -4.52525,-1.15175 -5.40625,-3.46875 -0.881,-2.317 -1.3125,-5.65825 -1.3125,-10.03125 0,-4.579 0.4375,-7.9845 1.3125,-10.1875 0.881,-2.203 2.68625,-3.28125 5.40625,-3.28125 z m 58.53125,0 c 2.72,0 4.527,1.07825 5.375,3.28125 0.849,2.203 1.25,5.6085 1.25,10.1875 0,4.373 -0.407,7.71425 -1.25,10.03125 -0.843,2.317 -2.656,3.46875 -5.375,3.46875 -2.72,0 -4.494,-1.15175 -5.375,-3.46875 -0.881,-2.317 -1.3125,-5.65825 -1.3125,-10.03125 -0.005,-4.579 0.4315,-7.9845 1.3125,-10.1875 0.881,-2.203 2.655,-3.28125 5.375,-3.28125 z m 36.625,0 c 2.72,0 4.49575,1.07825 5.34375,3.28125 0.848,2.203 1.28125,5.6085 1.28125,10.1875 0,4.373 -0.43825,7.71425 -1.28125,10.03125 -0.848,2.317 -2.62475,3.46875 -5.34375,3.46875 -2.72,0 -4.52525,-1.15175 -5.40625,-3.46875 -0.881,-2.317 -1.3125,-5.65825 -1.3125,-10.03125 0,-4.579 0.4365,-7.9845 1.3125,-10.1875 0.881,-2.203 2.68625,-3.28125 5.40625,-3.28125 z m -69.21875,4.625 0,7.84375 9.75,0 0,-7.84375 -9.75,0 z m 0,19.65625 0,7.84375 9.75,0 0,-7.84375 -9.75,0 z"
   id="path7-7"
   inkscape:connector-curvature="0" /></g>
<g
   id="g23">
</g>
<g
   id="g25">
</g>
<g
   id="g27">
</g>
<g
   id="g29">
</g>
<g
   id="g31">
</g>
<g
   id="g33">
</g>
<g
   id="g35">
</g>
<g
   id="g37">
</g>
<g
   id="g39">
</g>
<g
   id="g41">
</g>
<g
   id="g43">
</g>
<g
   id="g45">
</g>
<g
   id="g47">
</g>
<g
   id="g49">
</g>
<g
   id="g51">
</g>
</svg>
